<svg width="20" height="20" viewBox="0 0 20 20" fill="none" xmlns="http://www.w3.org/2000/svg">
<path d="M12.3346 13.7087L9.3763 10.7503V6.66699H10.6263V10.2295L13.2096 12.8128L12.3346 13.7087ZM9.3763 4.79199V2.91699H10.6263V4.79199H9.3763ZM15.2096 10.6253V9.37533H17.0846V10.6253H15.2096ZM9.3763 17.0837V15.2087H10.6263V17.0837H9.3763ZM2.91797 10.6253V9.37533H4.79297V10.6253H2.91797ZM10.0013 18.3337C8.86241 18.3337 7.78602 18.1149 6.77214 17.6774C5.75825 17.2399 4.87283 16.6427 4.11589 15.8857C3.35894 15.1288 2.76172 14.2434 2.32422 13.2295C1.88672 12.2156 1.66797 11.1323 1.66797 9.97949C1.66797 8.8406 1.88672 7.76421 2.32422 6.75033C2.76172 5.73644 3.35894 4.85449 4.11589 4.10449C4.87283 3.35449 5.75825 2.76074 6.77214 2.32324C7.78602 1.88574 8.86936 1.66699 10.0221 1.66699C11.161 1.66699 12.2374 1.88574 13.2513 2.32324C14.2652 2.76074 15.1471 3.35449 15.8971 4.10449C16.6471 4.85449 17.2409 5.73644 17.6784 6.75033C18.1159 7.76421 18.3346 8.84755 18.3346 10.0003C18.3346 11.1392 18.1159 12.2156 17.6784 13.2295C17.2409 14.2434 16.6471 15.1288 15.8971 15.8857C15.1471 16.6427 14.2652 17.2399 13.2513 17.6774C12.2374 18.1149 11.1541 18.3337 10.0013 18.3337ZM10.0221 17.0837C11.9805 17.0837 13.6471 16.3927 15.0221 15.0107C16.3971 13.6288 17.0846 11.9517 17.0846 9.97949C17.0846 8.02116 16.3971 6.35449 15.0221 4.97949C13.6471 3.60449 11.9735 2.91699 10.0013 2.91699C8.04297 2.91699 6.37283 3.60449 4.99089 4.97949C3.60894 6.35449 2.91797 8.0281 2.91797 10.0003C2.91797 11.9587 3.60894 13.6288 4.99089 15.0107C6.37283 16.3927 8.04991 17.0837 10.0221 17.0837Z" fill="black"/>
</svg>
