<svg width="20" height="20" viewBox="0 0 20 20" fill="none" xmlns="http://www.w3.org/2000/svg">
<path d="M11.4583 18.25L10.5833 17.375L13.5417 14.4167L5.58333 6.45833L2.625 9.41667L1.75 8.54167L2.91667 7.33333L1.75 6.16667L3.52083 4.39583L2.64583 3.52083L3.52083 2.64583L4.41667 3.5L6.16667 1.75L7.33333 2.91667L8.54167 1.75L9.41667 2.625L6.45833 5.58333L14.4167 13.5417L17.375 10.5833L18.25 11.4583L17.0833 12.6667L18.25 13.8333L16.4583 15.625L17.3333 16.5L16.4583 17.375L15.5833 16.5L13.8333 18.25L12.6667 17.0833L11.4583 18.25Z" fill="black"/>
</svg>
