<svg width="20" height="20" viewBox="0 0 20 20" fill="none" xmlns="http://www.w3.org/2000/svg">
<path d="M3.9375 16.6663C3.0625 16.6663 2.34028 16.3608 1.77083 15.7497C1.20139 15.1386 0.902778 14.4233 0.875 13.6038C0.875 13.4927 0.881945 13.3677 0.895833 13.2288C0.909722 13.09 0.930556 12.965 0.958333 12.8538L2.70833 5.85384C2.90278 5.11773 3.30208 4.51356 3.90625 4.04134C4.51042 3.56912 5.1875 3.33301 5.9375 3.33301H14.0625C14.8125 3.33301 15.4896 3.56912 16.0938 4.04134C16.6979 4.51356 17.0972 5.11773 17.2917 5.85384L19.0417 12.8538C19.0694 12.9788 19.0938 13.1073 19.1146 13.2393C19.1354 13.3712 19.1458 13.4997 19.1458 13.6247C19.1458 14.458 18.8507 15.1733 18.2604 15.7705C17.6701 16.3677 16.9375 16.6663 16.0625 16.6663C15.4792 16.6663 14.9375 16.5136 14.4375 16.208C13.9375 15.9025 13.5625 15.4858 13.3125 14.958L12.7292 13.7497C12.6597 13.5969 12.559 13.4893 12.4271 13.4268C12.2951 13.3643 12.1458 13.333 11.9792 13.333H8.02083C7.85417 13.333 7.70486 13.3643 7.57292 13.4268C7.44097 13.4893 7.34028 13.5969 7.27083 13.7497L6.6875 14.958C6.4375 15.4858 6.0625 15.9025 5.5625 16.208C5.0625 16.5136 4.52083 16.6663 3.9375 16.6663ZM4 15.4163C4.30556 15.4163 4.60069 15.3365 4.88542 15.1768C5.17014 15.017 5.40278 14.7636 5.58333 14.4163L6.16667 13.2288C6.34722 12.8677 6.60069 12.5865 6.92708 12.3851C7.25347 12.1837 7.61806 12.083 8.02083 12.083H11.9792C12.3681 12.083 12.7292 12.1872 13.0625 12.3955C13.3958 12.6038 13.6597 12.8816 13.8542 13.2288L14.4375 14.4163C14.6181 14.7636 14.8507 15.017 15.1354 15.1768C15.4201 15.3365 15.7153 15.4163 16.0208 15.4163C16.4931 15.4163 16.9167 15.2531 17.2917 14.9268C17.6667 14.6004 17.8611 14.1733 17.875 13.6455C17.875 13.5761 17.8715 13.4962 17.8646 13.4059C17.8576 13.3156 17.8403 13.2288 17.8125 13.1455L16.0625 6.16634C15.9514 5.69412 15.7118 5.31217 15.3438 5.02051C14.9757 4.72884 14.5486 4.58301 14.0625 4.58301H5.9375C5.45139 4.58301 5.02431 4.72884 4.65625 5.02051C4.28819 5.31217 4.04861 5.69412 3.9375 6.16634L2.1875 13.1455C2.17361 13.2011 2.15278 13.3608 2.125 13.6247C2.125 14.1525 2.31944 14.583 2.70833 14.9163C3.09722 15.2497 3.52778 15.4163 4 15.4163ZM11.25 8.95801C11.0833 8.95801 10.9375 8.89551 10.8125 8.77051C10.6875 8.64551 10.625 8.49273 10.625 8.31217C10.625 8.14551 10.6875 8.00315 10.8125 7.88509C10.9375 7.76704 11.0903 7.70801 11.2708 7.70801C11.4375 7.70801 11.5799 7.76704 11.6979 7.88509C11.816 8.00315 11.875 8.15245 11.875 8.33301C11.875 8.49967 11.816 8.64551 11.6979 8.77051C11.5799 8.89551 11.4306 8.95801 11.25 8.95801ZM12.9167 7.29134C12.75 7.29134 12.6042 7.22884 12.4792 7.10384C12.3542 6.97884 12.2917 6.82606 12.2917 6.64551C12.2917 6.47884 12.3542 6.33648 12.4792 6.21842C12.6042 6.10037 12.7569 6.04134 12.9375 6.04134C13.1042 6.04134 13.2465 6.10037 13.3646 6.21842C13.4826 6.33648 13.5417 6.48579 13.5417 6.66634C13.5417 6.83301 13.4826 6.97884 13.3646 7.10384C13.2465 7.22884 13.0972 7.29134 12.9167 7.29134ZM12.9167 10.6247C12.75 10.6247 12.6042 10.5622 12.4792 10.4372C12.3542 10.3122 12.2917 10.1594 12.2917 9.97884C12.2917 9.81217 12.3542 9.66981 12.4792 9.55176C12.6042 9.4337 12.7569 9.37467 12.9375 9.37467C13.1042 9.37467 13.2465 9.4337 13.3646 9.55176C13.4826 9.66981 13.5417 9.81912 13.5417 9.99967C13.5417 10.1663 13.4826 10.3122 13.3646 10.4372C13.2465 10.5622 13.0972 10.6247 12.9167 10.6247ZM14.5833 8.95801C14.4167 8.95801 14.2708 8.89551 14.1458 8.77051C14.0208 8.64551 13.9583 8.49273 13.9583 8.31217C13.9583 8.14551 14.0208 8.00315 14.1458 7.88509C14.2708 7.76704 14.4236 7.70801 14.6042 7.70801C14.7708 7.70801 14.9132 7.76704 15.0313 7.88509C15.1493 8.00315 15.2083 8.15245 15.2083 8.33301C15.2083 8.49967 15.1493 8.64551 15.0313 8.77051C14.9132 8.89551 14.7639 8.95801 14.5833 8.95801ZM7.08333 10.3122C6.94444 10.3122 6.82292 10.2601 6.71875 10.1559C6.61458 10.0518 6.5625 9.93023 6.5625 9.79134V8.85384H5.625C5.48611 8.85384 5.36458 8.80176 5.26042 8.69759C5.15625 8.59342 5.10417 8.4719 5.10417 8.33301C5.10417 8.19412 5.15625 8.07259 5.26042 7.96842C5.36458 7.86426 5.48611 7.81217 5.625 7.81217H6.5625V6.87467C6.5625 6.73579 6.61458 6.61426 6.71875 6.51009C6.82292 6.40592 6.94444 6.35384 7.08333 6.35384C7.22222 6.35384 7.34375 6.40592 7.44792 6.51009C7.55208 6.61426 7.60417 6.73579 7.60417 6.87467V7.81217H8.54167C8.68056 7.81217 8.80208 7.86426 8.90625 7.96842C9.01042 8.07259 9.0625 8.19412 9.0625 8.33301C9.0625 8.4719 9.01042 8.59342 8.90625 8.69759C8.80208 8.80176 8.68056 8.85384 8.54167 8.85384H7.60417V9.79134C7.60417 9.93023 7.55208 10.0518 7.44792 10.1559C7.34375 10.2601 7.22222 10.3122 7.08333 10.3122Z" fill="black"/>
</svg>
