<svg width="20" height="20" viewBox="0 0 20 20" fill="none" xmlns="http://www.w3.org/2000/svg">
<path d="M4.16797 16.6667V10H1.66797L10.0013 2.5L14.168 6.1875V3.75H15.8346V7.72917L18.3346 10H15.8346V16.6667H11.043V11.6667H8.95964V16.6667H4.16797ZM5.41797 15.4167H7.70964V10.4167H12.293V15.4167H14.5846V8.3125L10.0013 4.14583L5.41797 8.3125V15.4167ZM7.70964 10.4167H12.293H7.70964ZM8.23047 8.125H11.7721C11.7721 7.66667 11.5951 7.28819 11.2409 6.98958C10.8867 6.69097 10.4735 6.54167 10.0013 6.54167C9.52908 6.54167 9.11589 6.69097 8.76172 6.98958C8.40755 7.28819 8.23047 7.66667 8.23047 8.125Z" fill="black"/>
</svg>
