<svg width="20" height="20" viewBox="0 0 20 20" fill="none" xmlns="http://www.w3.org/2000/svg">
<path d="M2.5 17.5003V5.87533H7.64583V3.95866L10 1.66699L12.3542 3.95866V9.33366H17.5V17.5003H2.5ZM3.75 16.2503H5.95833V14.042H3.75V16.2503ZM3.75 12.792H5.95833V10.5837H3.75V12.792ZM3.75 9.33366H5.95833V7.12533H3.75V9.33366ZM8.89583 16.2503H11.1042V14.042H8.89583V16.2503ZM8.89583 12.792H11.1042V10.5837H8.89583V12.792ZM8.89583 9.33366H11.1042V7.12533H8.89583V9.33366ZM8.89583 5.87533H11.1042V3.66699H8.89583V5.87533ZM14.0417 16.2503H16.25V14.042H14.0417V16.2503ZM14.0417 12.792H16.25V10.5837H14.0417V12.792Z" fill="black"/>
</svg>
