<svg width="20" height="20" viewBox="0 0 20 20" fill="none" xmlns="http://www.w3.org/2000/svg">
<path d="M5.41797 17.5003C5.07075 17.5003 4.77561 17.3788 4.53255 17.1357C4.2895 16.8927 4.16797 16.5975 4.16797 16.2503V6.45866C4.16797 6.05588 4.31033 5.71213 4.59505 5.42741C4.87977 5.14269 5.22352 5.00033 5.6263 5.00033H7.5013V2.29199C7.5013 2.09755 7.58811 1.94477 7.76172 1.83366C7.93533 1.72255 8.1263 1.66699 8.33464 1.66699H11.668C11.8763 1.66699 12.0673 1.72255 12.2409 1.83366C12.4145 1.94477 12.5013 2.09755 12.5013 2.29199V5.00033H14.5846C14.9319 5.00033 15.227 5.12185 15.4701 5.36491C15.7131 5.60796 15.8346 5.9031 15.8346 6.25033V16.2503C15.8346 16.5975 15.7131 16.8927 15.4701 17.1357C15.227 17.3788 14.9319 17.5003 14.5846 17.5003C14.5846 17.7364 14.5048 17.9344 14.3451 18.0941C14.1853 18.2538 13.9874 18.3337 13.7513 18.3337C13.5152 18.3337 13.3173 18.2538 13.1576 18.0941C12.9978 17.9344 12.918 17.7364 12.918 17.5003H7.08464C7.08464 17.7364 7.00477 17.9344 6.84505 18.0941C6.68533 18.2538 6.48741 18.3337 6.2513 18.3337C6.01519 18.3337 5.81727 18.2538 5.65755 18.0941C5.49783 17.9344 5.41797 17.7364 5.41797 17.5003ZM8.33464 5.00033H11.668V2.50033H8.33464V5.00033ZM5.41797 16.2503H14.5846V6.25033H5.41797V16.2503ZM6.8763 15.0003H7.70964V7.50033H6.8763V15.0003ZM9.58464 15.0003H10.418V7.50033H9.58464V15.0003ZM12.293 15.0003H13.1263V7.50033H12.293V15.0003ZM5.41797 16.2503V6.25033V16.2503Z" fill="black"/>
</svg>
