<svg width="20" height="20" viewBox="0 0 20 20" fill="none" xmlns="http://www.w3.org/2000/svg">
<path d="M1.66797 8.375V7.54167C1.66797 6.02778 2.39714 4.80903 3.85547 3.88542C5.3138 2.96181 7.36241 2.5 10.0013 2.5C12.6402 2.5 14.6888 2.96181 16.1471 3.88542C17.6055 4.80903 18.3346 6.02778 18.3346 7.54167V8.375H1.66797ZM2.95964 7.125H17.043C17.0013 6.16667 16.3312 5.36458 15.0326 4.71875C13.7339 4.07292 12.0569 3.75 10.0013 3.75C7.94575 3.75 6.26172 4.07292 4.94922 4.71875C3.63672 5.36458 2.97352 6.16667 2.95964 7.125ZM1.66797 12.0417V10.7917C2.1263 10.7917 2.52561 10.6389 2.86589 10.3333C3.20616 10.0278 3.7513 9.875 4.5013 9.875C5.2513 9.875 5.74783 10.0278 5.99089 10.3333C6.23394 10.6389 6.64019 10.7917 7.20963 10.7917C7.77908 10.7917 8.19922 10.6389 8.47005 10.3333C8.74089 10.0278 9.2513 9.875 10.0013 9.875C10.7513 9.875 11.2617 10.0278 11.5326 10.3333C11.8034 10.6389 12.2235 10.7917 12.793 10.7917C13.3624 10.7917 13.7687 10.6389 14.0117 10.3333C14.2548 10.0278 14.7513 9.875 15.5013 9.875C16.2513 9.875 16.7964 10.0278 17.1367 10.3333C17.477 10.6389 17.8763 10.7917 18.3346 10.7917V12.0417C17.5846 12.0417 17.0673 11.8889 16.7826 11.5833C16.4978 11.2778 16.0707 11.125 15.5013 11.125C14.9319 11.125 14.5256 11.2778 14.2826 11.5833C14.0395 11.8889 13.543 12.0417 12.793 12.0417C12.043 12.0417 11.5326 11.8889 11.2617 11.5833C10.9909 11.2778 10.5707 11.125 10.0013 11.125C9.43186 11.125 9.01172 11.2778 8.74089 11.5833C8.47005 11.8889 7.95963 12.0417 7.20963 12.0417C6.45963 12.0417 5.96311 11.8889 5.72005 11.5833C5.477 11.2778 5.07075 11.125 4.5013 11.125C3.93186 11.125 3.50477 11.2778 3.22005 11.5833C2.93533 11.8889 2.41797 12.0417 1.66797 12.0417ZM2.91797 17.5C2.58464 17.5 2.29297 17.375 2.04297 17.125C1.79297 16.875 1.66797 16.5833 1.66797 16.25V13.5833H18.3346V16.25C18.3346 16.5833 18.2096 16.875 17.9596 17.125C17.7096 17.375 17.418 17.5 17.0846 17.5H2.91797ZM2.91797 16.25H17.0846V14.8333H2.91797V16.25ZM2.91797 14.8333H17.0846H2.91797ZM2.95964 7.125H17.043H2.95964Z" fill="black"/>
</svg>
