<svg width="20" height="20" viewBox="0 0 20 20" fill="none" xmlns="http://www.w3.org/2000/svg">
<path d="M10.9167 19.1667C9.75 19.1667 8.65625 18.9444 7.63542 18.5C6.61458 18.0556 5.72569 17.4549 4.96875 16.6979C4.21181 15.941 3.61111 15.0521 3.16667 14.0312C2.72222 13.0104 2.5 11.9167 2.5 10.75C2.5 8.72222 3.14583 6.93403 4.4375 5.38542C5.72917 3.83681 7.375 2.875 9.375 2.5C9.125 3.86111 9.20139 5.19792 9.60417 6.51042C10.0069 7.82292 10.7014 8.97222 11.6875 9.95833C12.6736 10.9444 13.8229 11.6424 15.1354 12.0521C16.4479 12.4618 17.7917 12.5417 19.1667 12.2917C18.8056 14.2917 17.8472 15.9375 16.2917 17.2292C14.7361 18.5208 12.9444 19.1667 10.9167 19.1667ZM10.9167 17.9167C12.3056 17.9167 13.5694 17.5208 14.7083 16.7292C15.8472 15.9375 16.7639 14.9306 17.4583 13.7083C16.2083 13.5972 15.0069 13.309 13.8542 12.8438C12.7014 12.3785 11.6875 11.7083 10.8125 10.8333C9.92361 9.95833 9.25 8.94792 8.79167 7.80208C8.33333 6.65625 8.04861 5.46528 7.9375 4.22917C6.71528 4.89583 5.71181 5.80208 4.92708 6.94792C4.14236 8.09375 3.75 9.36111 3.75 10.75C3.75 12.7361 4.44792 14.4271 5.84375 15.8229C7.23958 17.2187 8.93056 17.9167 10.9167 17.9167Z" fill="black"/>
</svg>
