<svg width="20" height="20" viewBox="0 0 20 20" fill="none" xmlns="http://www.w3.org/2000/svg">
<path d="M5.97917 18.3128C5.5625 18.3128 5.20833 18.167 4.91667 17.8753C4.625 17.5837 4.47917 17.2295 4.47917 16.8128C4.47917 16.3962 4.625 16.042 4.91667 15.7503C5.20833 15.4587 5.5625 15.3128 5.97917 15.3128C6.39583 15.3128 6.75 15.4587 7.04167 15.7503C7.33333 16.042 7.47917 16.3962 7.47917 16.8128C7.47917 17.2295 7.33333 17.5837 7.04167 17.8753C6.75 18.167 6.39583 18.3128 5.97917 18.3128ZM14.3125 18.3128C13.8958 18.3128 13.5417 18.167 13.25 17.8753C12.9583 17.5837 12.8125 17.2295 12.8125 16.8128C12.8125 16.3962 12.9583 16.042 13.25 15.7503C13.5417 15.4587 13.8958 15.3128 14.3125 15.3128C14.7292 15.3128 15.0833 15.4587 15.375 15.7503C15.6667 16.042 15.8125 16.3962 15.8125 16.8128C15.8125 17.2295 15.6667 17.5837 15.375 17.8753C15.0833 18.167 14.7292 18.3128 14.3125 18.3128ZM4.89583 4.56283L7.1875 9.31283H13.1875L15.7917 4.56283H4.89583ZM4.27083 3.31283H16.5417C16.8611 3.31283 17.1042 3.45866 17.2708 3.75033C17.4375 4.04199 17.4375 4.33366 17.2708 4.62533L14.4583 9.68783C14.3056 9.95171 14.1076 10.1635 13.8646 10.3232C13.6215 10.483 13.3542 10.5628 13.0625 10.5628H6.75L5.58333 12.7295H15.8125V13.9795H5.77083C5.1875 13.9795 4.76736 13.785 4.51042 13.3962C4.25347 13.0073 4.25694 12.5698 4.52083 12.0837L5.85417 9.62533L2.6875 2.91699H1.0625V1.66699H3.5L4.27083 3.31283ZM7.1875 9.31283H13.1875H7.1875Z" fill="black"/>
</svg>
