<svg width="20" height="20" viewBox="0 0 20 20" fill="none" xmlns="http://www.w3.org/2000/svg">
<path d="M11.8737 6.45866C12.0959 6.45866 12.2904 6.37533 12.457 6.20866C12.6237 6.04199 12.707 5.84755 12.707 5.62533C12.707 5.4031 12.6237 5.20866 12.457 5.04199C12.2904 4.87533 12.0959 4.79199 11.8737 4.79199C11.6515 4.79199 11.457 4.87533 11.2904 5.04199C11.1237 5.20866 11.0404 5.4031 11.0404 5.62533C11.0404 5.84755 11.1237 6.04199 11.2904 6.20866C11.457 6.37533 11.6515 6.45866 11.8737 6.45866ZM11.8737 7.29199C11.4154 7.29199 11.023 7.1288 10.6966 6.80241C10.3702 6.47602 10.207 6.08366 10.207 5.62533C10.207 5.16699 10.3702 4.77463 10.6966 4.44824C11.023 4.12185 11.4154 3.95866 11.8737 3.95866C12.332 3.95866 12.7244 4.12185 13.0508 4.44824C13.3772 4.77463 13.5404 5.16699 13.5404 5.62533C13.5404 6.08366 13.3772 6.47602 13.0508 6.80241C12.7244 7.1288 12.332 7.29199 11.8737 7.29199ZM16.6654 5.62533C16.8459 5.62533 16.9952 5.56283 17.1133 5.43783C17.2313 5.31283 17.2904 5.16699 17.2904 5.00033C17.2904 4.81977 17.2313 4.67046 17.1133 4.55241C16.9952 4.43435 16.8529 4.37533 16.6862 4.37533C16.5056 4.37533 16.3529 4.43435 16.2279 4.55241C16.1029 4.67046 16.0404 4.81283 16.0404 4.97949C16.0404 5.16005 16.1029 5.31283 16.2279 5.43783C16.3529 5.56283 16.4987 5.62533 16.6654 5.62533ZM16.6654 6.45866C16.2626 6.45866 15.9188 6.3163 15.6341 6.03158C15.3494 5.74685 15.207 5.4031 15.207 5.00033C15.207 4.59755 15.3494 4.2538 15.6341 3.96908C15.9188 3.68435 16.2626 3.54199 16.6654 3.54199C17.0681 3.54199 17.4119 3.68435 17.6966 3.96908C17.9813 4.2538 18.1237 4.59755 18.1237 5.00033C18.1237 5.4031 17.9813 5.74685 17.6966 6.03158C17.4119 6.3163 17.0681 6.45866 16.6654 6.45866ZM13.7487 3.12533C13.457 3.12533 13.2105 3.02463 13.0091 2.82324C12.8077 2.62185 12.707 2.37533 12.707 2.08366C12.707 1.79199 12.8077 1.54546 13.0091 1.34408C13.2105 1.14269 13.457 1.04199 13.7487 1.04199C14.0404 1.04199 14.2869 1.14269 14.4883 1.34408C14.6897 1.54546 14.7904 1.79199 14.7904 2.08366C14.7904 2.37533 14.6897 2.62185 14.4883 2.82324C14.2869 3.02463 14.0404 3.12533 13.7487 3.12533ZM3.1237 19.167C2.4987 19.167 1.9605 18.9413 1.50911 18.4899C1.05773 18.0385 0.832031 17.5003 0.832031 16.8753V11.8545C0.832031 11.535 0.894531 11.233 1.01953 10.9482C1.14453 10.6635 1.32509 10.41 1.5612 10.1878L7.39453 4.66699L8.16536 5.47949C8.26259 5.5906 8.31467 5.71908 8.32161 5.86491C8.32856 6.01074 8.29731 6.14616 8.22786 6.27116L6.83203 8.75033H15.4779C15.7001 8.75033 15.8841 8.83019 16.0299 8.98991C16.1758 9.14963 16.2487 9.34755 16.2487 9.58366C16.2487 9.81977 16.1688 10.0177 16.0091 10.1774C15.8494 10.3371 15.6515 10.417 15.4154 10.417H9.58203V11.667H17.082C17.3181 11.667 17.5161 11.7469 17.6758 11.9066C17.8355 12.0663 17.9154 12.2642 17.9154 12.5003C17.9154 12.7364 17.8355 12.9344 17.6758 13.0941C17.5161 13.2538 17.3181 13.3337 17.082 13.3337H9.58203V14.5837H16.2487C16.4848 14.5837 16.6827 14.6635 16.8424 14.8232C17.0022 14.983 17.082 15.1809 17.082 15.417C17.082 15.6531 17.0022 15.851 16.8424 16.0107C16.6827 16.1705 16.4848 16.2503 16.2487 16.2503H9.58203V17.5003H14.582C14.8181 17.5003 15.0161 17.5802 15.1758 17.7399C15.3355 17.8996 15.4154 18.0975 15.4154 18.3337C15.4154 18.5698 15.3355 18.7677 15.1758 18.9274C15.0161 19.0871 14.8181 19.167 14.582 19.167H3.1237ZM3.1237 17.917H8.33203V10.0003H5.83203V7.87533L2.4362 11.0628C2.36675 11.1323 2.29036 11.2364 2.20703 11.3753C2.1237 11.5142 2.08203 11.6809 2.08203 11.8753V16.8753C2.08203 17.1531 2.1862 17.3962 2.39453 17.6045C2.60286 17.8128 2.84592 17.917 3.1237 17.917Z" fill="black"/>
</svg>
