<svg width="20" height="20" viewBox="0 0 20 20" fill="none" xmlns="http://www.w3.org/2000/svg">
<path d="M5.0013 16.25H10.418V14.7917H5.0013V16.25ZM5.41797 8.125H9.58464C9.69575 8.125 9.79297 8.08333 9.8763 8C9.95964 7.91667 10.0013 7.81944 10.0013 7.70833C10.0013 7.59722 9.95964 7.5 9.8763 7.41667C9.79297 7.33333 9.69575 7.29167 9.58464 7.29167H5.41797C5.30686 7.29167 5.20964 7.33333 5.1263 7.41667C5.04297 7.5 5.0013 7.59722 5.0013 7.70833C5.0013 7.81944 5.04297 7.91667 5.1263 8C5.20964 8.08333 5.30686 8.125 5.41797 8.125ZM5.41797 6.04167H9.58464C9.69575 6.04167 9.79297 6 9.8763 5.91667C9.95964 5.83333 10.0013 5.73611 10.0013 5.625C10.0013 5.51389 9.95964 5.41667 9.8763 5.33333C9.79297 5.25 9.69575 5.20833 9.58464 5.20833H5.41797C5.30686 5.20833 5.20964 5.25 5.1263 5.33333C5.04297 5.41667 5.0013 5.51389 5.0013 5.625C5.0013 5.73611 5.04297 5.83333 5.1263 5.91667C5.20964 6 5.30686 6.04167 5.41797 6.04167ZM13.3346 9.16667V7.91667H15.418V5.41667H13.3346V4.16667H15.418C15.7652 4.16667 16.0603 4.28819 16.3034 4.53125C16.5464 4.77431 16.668 5.06944 16.668 5.41667V6.04167H18.543C18.7235 6.04167 18.8728 6.10069 18.9909 6.21875C19.1089 6.33681 19.168 6.48611 19.168 6.66667C19.168 6.83333 19.1089 6.97917 18.9909 7.10417C18.8728 7.22917 18.7235 7.29167 18.543 7.29167H16.668V7.91667C16.668 8.26389 16.5464 8.55903 16.3034 8.80208C16.0603 9.04514 15.7652 9.16667 15.418 9.16667H13.3346ZM10.0013 13.5417H8.7513V9.58333H12.0846V3.75H5.0013C4.41797 3.75 3.92491 3.95139 3.52214 4.35417C3.11936 4.75694 2.91797 5.25 2.91797 5.83333V7.5C2.91797 8.08333 3.11936 8.57639 3.52214 8.97917C3.92491 9.38194 4.41797 9.58333 5.0013 9.58333H6.66797V13.5417H5.41797V10.8333H5.0013C4.08464 10.8333 3.29991 10.5069 2.64714 9.85417C1.99436 9.20139 1.66797 8.41667 1.66797 7.5V5.83333C1.66797 4.91667 1.99436 4.13194 2.64714 3.47917C3.29991 2.82639 4.08464 2.5 5.0013 2.5H12.0846C12.4319 2.5 12.727 2.62153 12.9701 2.86458C13.2131 3.10764 13.3346 3.40278 13.3346 3.75V9.58333C13.3346 9.93056 13.2131 10.2257 12.9701 10.4688C12.727 10.7118 12.4319 10.8333 12.0846 10.8333H10.0013V13.5417ZM4.6888 17.5C4.42491 17.5 4.20269 17.4097 4.02214 17.2292C3.84158 17.0486 3.7513 16.8264 3.7513 16.5625V14.4792C3.7513 14.2153 3.84158 13.9931 4.02214 13.8125C4.20269 13.6319 4.42491 13.5417 4.6888 13.5417H10.7305C10.9944 13.5417 11.2166 13.6319 11.3971 13.8125C11.5777 13.9931 11.668 14.2153 11.668 14.4792V16.5625C11.668 16.8264 11.5777 17.0486 11.3971 17.2292C11.2166 17.4097 10.9944 17.5 10.7305 17.5H4.6888ZM10.418 16.25H5.0013H10.418Z" fill="black"/>
</svg>
