<svg width="20" height="20" viewBox="0 0 20 20" fill="none" xmlns="http://www.w3.org/2000/svg">
<path d="M2.91797 17.5003C2.58464 17.5003 2.29297 17.3753 2.04297 17.1253C1.79297 16.8753 1.66797 16.5837 1.66797 16.2503V6.25033C1.66797 5.91699 1.79297 5.62533 2.04297 5.37533C2.29297 5.12533 2.58464 5.00033 2.91797 5.00033H6.66797V2.91699C6.66797 2.58366 6.79297 2.29199 7.04297 2.04199C7.29297 1.79199 7.58464 1.66699 7.91797 1.66699H12.0846C12.418 1.66699 12.7096 1.79199 12.9596 2.04199C13.2096 2.29199 13.3346 2.58366 13.3346 2.91699V5.00033H17.0846C17.418 5.00033 17.7096 5.12533 17.9596 5.37533C18.2096 5.62533 18.3346 5.91699 18.3346 6.25033V16.2503C18.3346 16.5837 18.2096 16.8753 17.9596 17.1253C17.7096 17.3753 17.418 17.5003 17.0846 17.5003H2.91797ZM2.91797 16.2503H17.0846V6.25033H2.91797V16.2503ZM7.91797 5.00033H12.0846V2.91699H7.91797V5.00033ZM2.91797 16.2503V6.25033V16.2503Z" fill="black"/>
</svg>
