<svg width="20" height="20" viewBox="0 0 20 20" fill="none" xmlns="http://www.w3.org/2000/svg">
  <path
    d="M12.0816 4.60039C12.9616 4.60039 13.6816 3.88039 13.6816 3.00039C13.6816 2.12039 12.9616 1.40039 12.0816 1.40039C11.2016 1.40039 10.4816 2.12039 10.4816 3.00039C10.4816 3.88039 11.2016 4.60039 12.0816 4.60039ZM9.20156 15.7204L10.0016 12.2004L11.6816 13.8004V18.6004H13.2816V12.6004L11.6016 11.0004L12.0816 8.60039C13.1216 9.80039 14.7216 10.6004 16.4816 10.6004V9.00039C14.9616 9.00039 13.6816 8.20039 13.0416 7.08039L12.2416 5.80039C11.9216 5.32039 11.4416 5.00039 10.8816 5.00039C10.6416 5.00039 10.4816 5.08039 10.2416 5.08039L6.08156 6.84039V10.6004H7.68156V7.88039L9.12156 7.32039L7.84156 13.8004L3.92156 13.0004L3.60156 14.6004L9.20156 15.7204Z"
    fill="#00ADB5" />
</svg>