<svg width="20" height="20" viewBox="0 0 20 20" fill="none" xmlns="http://www.w3.org/2000/svg">
  <g clip-path="url(#clip0_505_161)">
    <path
      d="M18.3346 4.31699L8.8263 13.8337L5.29297 10.3003L6.46797 9.12533L8.8263 11.4837L17.1596 3.15033L18.3346 4.31699ZM10.0013 16.667C6.3263 16.667 3.33464 13.6753 3.33464 10.0003C3.33464 6.32533 6.3263 3.33366 10.0013 3.33366C11.3096 3.33366 12.5346 3.71699 13.568 4.37533L14.7763 3.16699C13.418 2.22533 11.7763 1.66699 10.0013 1.66699C5.4013 1.66699 1.66797 5.40033 1.66797 10.0003C1.66797 14.6003 5.4013 18.3337 10.0013 18.3337C11.443 18.3337 12.8013 17.967 13.9846 17.317L12.7346 16.067C11.9013 16.4503 10.9763 16.667 10.0013 16.667ZM15.8346 12.5003H13.3346V14.167H15.8346V16.667H17.5013V14.167H20.0013V12.5003H17.5013V10.0003H15.8346V12.5003Z"
      fill="#B2B3D4" />
  </g>
  <defs>
    <clipPath id="clip0_505_161">
      <rect width="20" height="20" fill="white" />
    </clipPath>
  </defs>
</svg>